<?xml version="1.0" encoding="utf-8" ?><svg xmlns="http://www.w3.org/2000/svg" xmlns:xlink="http://www.w3.org/1999/xlink" width="1024" height="1024" viewBox="0 0 1024 1024"><path fill="white" d="M0 0L1024 0L1024 1024L0 1024L0 0Z"/><path d="M721.928 135.706C722.183 135.679 722.439 135.652 722.694 135.625C790.66 129.923 855.638 179.684 860.476 249.17C862.79 282.42 852.391 314.073 830.176 339.036C815.771 355.169 797.28 367.115 776.653 373.616C764.196 377.515 751.115 379.028 738.096 378.077C713.986 376.32 697.484 367.994 678.581 353.811C636.918 322.55 602.659 299.601 547.516 302.817C528.598 303.786 510.041 308.369 492.848 316.32C476.346 324.077 467.322 331.808 452.91 342.382L412.025 372.331L384.119 392.568C373.674 400.091 363.183 406.928 354.467 416.554C330.518 443.007 328.769 487.834 357.008 512.133C368.669 522.297 383.946 527.31 399.361 526.03C426.211 523.734 446.821 504.203 454.516 479.207C458.239 467.113 459.727 455.764 464.174 443.581C469.039 430.626 476.125 418.618 485.115 408.097C502.902 387.329 528.036 372.848 555.567 370.822C572.011 369.669 588.465 372.921 603.233 380.242C613.304 385.159 630.477 398.258 640.212 405.256L700.795 448.743L763.141 492.56C776.695 502.007 793.93 513.601 806.314 524.289C838.083 552.308 856.938 590.726 860.471 632.651C870.122 747.192 752.702 841.721 643.357 802.742C626.795 796.839 617.378 788.99 602.686 780.61C574.832 764.849 541.757 761.121 511.093 770.287C487.579 777.417 477.386 786.917 458.616 800.867C444.148 811.619 428.65 822.258 414.174 833.073C404.505 840.362 394.769 847.562 384.967 854.671C373.856 862.815 364.553 870.043 351.971 876.045C336.396 883.372 319.561 887.646 302.377 888.634C302.24 888.647 302.104 888.661 301.967 888.674C267.571 891.695 233.404 880.771 207.141 858.357C154.988 813.338 148.136 738.115 193.559 685.865C226.267 648.242 278.516 633.654 324.112 656.352C335.188 661.865 345.133 670.69 355.432 677.553C395.386 707.273 427.348 725.069 479.583 721.253C496.625 720.099 513.301 715.762 528.746 708.466C552.219 697.203 571.866 679.569 593.087 664.234C606.233 654.775 619.329 645.245 632.373 635.646C645.349 626.226 659.862 617.008 670.42 604.938C693.61 578.428 695.181 535.232 666.744 511.689C632.76 483.554 583.552 502.996 570.987 543.359C567.14 555.717 565.363 568.004 560.914 580.277C556.368 592.743 549.692 604.325 541.185 614.508C523.944 635.39 497.627 650.907 470.442 653.38C454.243 654.853 437.944 651.965 423.238 645.013C412.037 639.755 401.378 631.221 391.239 623.956L351.299 595.709C319.678 573.783 288.263 551.56 257.058 529.044C246.015 521.045 232.276 512.27 221.927 503.668C188.629 475.668 167.808 435.596 164.038 392.254C153.56 278.505 270.18 184.338 378.882 219.891C396.944 225.798 408.169 234.849 423.87 244.17C449.323 259.281 485.535 262.073 513.633 253.7C537.598 246.559 547.394 237.15 566.443 223.223L624.092 181.061C658.952 155.437 675.687 139.791 721.928 135.706Z"/></svg>